<svg xmlns="http://www.w3.org/2000/svg" xmlns:xlink="http://www.w3.org/1999/xlink" viewBox="0 0 88 86">
  <defs>
    <style>
      .cls-1 {
        fill: #fff;
        stroke: #707070;
      }

      .cls-2 {
        clip-path: url(#clip-path);
      }

      .cls-3 {
        fill: #d80027;
      }
    </style>
    <clipPath id="clip-path">
      <rect id="Rectangle_14" data-name="Rectangle 14" class="cls-1" width="88" height="86" transform="translate(960.273 1184)"/>
    </clipPath>
  </defs>
  <g id="design_icon" class="cls-2" transform="translate(-960.273 -1184)">
    <g id="tools" transform="translate(960.273 1184)">
      <path id="Path_22" data-name="Path 22" class="cls-3" d="M69.492,44.527a2.549,2.549,0,0,0-2.578,2.52,4.708,4.708,0,0,1-9.414,0A14.362,14.362,0,0,0,49.586,34.3L29.29,54.131A22.01,22.01,0,0,0,50.066,68.55c12.133,0,22-9.646,22-21.5a2.549,2.549,0,0,0-2.578-2.52Zm0,0" transform="translate(15.93 17.449)"/>
      <path id="Path_23" data-name="Path 23" class="cls-3" d="M17.179,39.437,40.352,16.791,27.969,4.69a16.655,16.655,0,0,0-23.172,0,15.774,15.774,0,0,0,0,22.646Zm0,0" transform="translate(0.003 0)"/>
      <path id="Path_24" data-name="Path 24" class="cls-3" d="M42.163,24.752l0,0,11.584,11.32L59.867,30.1,36.694,7.451,30.577,13.43,42.161,24.75Zm0,0" transform="translate(16.63 3.791)"/>
      <path id="Path_25" data-name="Path 25" class="cls-3" d="M56.97,26.879,20.242,62.773a2.622,2.622,0,0,1-3.646,0,2.479,2.479,0,0,1,0-3.563L53.324,23.317,43.56,13.775.755,55.607A2.494,2.494,0,0,0,0,57.389V71.718a.021.021,0,0,1,0,.007v4.747a2.494,2.494,0,0,0,.755,1.782,2.609,2.609,0,0,0,1.823.737H22.105a2.609,2.609,0,0,0,1.823-.737l42.8-41.833ZM8.507,73.953,5.156,70.677V59.909l14.37,14.043Zm0,0" transform="translate(0 7.008)"/>
      <path id="Path_26" data-name="Path 26" class="cls-3" d="M63.131,27.336a15.755,15.755,0,0,0,0-22.645h0a16.654,16.654,0,0,0-23.171,0L36.9,7.679,60.073,30.324Zm0,0" transform="translate(20.069 0)"/>
    </g>
  </g>
</svg>
