<svg xmlns="http://www.w3.org/2000/svg" xmlns:xlink="http://www.w3.org/1999/xlink" viewBox="0 0 97 86">
  <defs>
    <style>
      .cls-1 {
        fill: #fff;
        stroke: #707070;
      }

      .cls-2 {
        clip-path: url(#clip-path);
      }

      .cls-3 {
        fill: #d80027;
      }
    </style>
    <clipPath id="clip-path">
      <rect id="Rectangle_11" data-name="Rectangle 11" class="cls-1" width="97" height="86" transform="translate(10.273)"/>
    </clipPath>
  </defs>
  <g id="development_icon" class="cls-2" transform="translate(-10.273)">
    <g id="browser" transform="translate(10.273 5.928)">
      <g id="Group_16" data-name="Group 16" transform="translate(0 17.487)">
        <g id="Group_15" data-name="Group 15">
          <path id="Path_20" data-name="Path 20" class="cls-3" d="M95.694,15.519H1.306A1.239,1.239,0,0,0,0,16.677V63.027c0,5.053,4.62,9.15,10.32,9.15H86.68c5.7,0,10.32-4.1,10.32-9.149V16.677A1.238,1.238,0,0,0,95.694,15.519ZM36.215,51.942a2.323,2.323,0,0,1,0,3.564,3.1,3.1,0,0,1-4.019,0L18.719,43.557a2.582,2.582,0,0,1,0-3.787L32.2,27.822a3.105,3.105,0,0,1,4.02,0,2.323,2.323,0,0,1,0,3.564L24.622,41.664Zm19.62-27.274L45.29,59.2a2.812,2.812,0,0,1-2.742,1.862,3.194,3.194,0,0,1-.745-.088,2.5,2.5,0,0,1-2-3.091L50.348,23.351a2.9,2.9,0,0,1,3.486-1.774A2.5,2.5,0,0,1,55.835,24.668ZM77.751,43.536,64.273,55.485a3.1,3.1,0,0,1-4.019,0,2.323,2.323,0,0,1,0-3.564L71.847,41.643,60.254,31.364a2.323,2.323,0,0,1,0-3.564,3.105,3.105,0,0,1,4.02,0L77.751,39.749a2.582,2.582,0,0,1,0,3.787Z" transform="translate(0 -15.519)"/>
        </g>
      </g>
      <g id="Group_18" data-name="Group 18">
        <g id="Group_17" data-name="Group 17">
          <path id="Path_21" data-name="Path 21" class="cls-3" d="M86.68,3.929h-.463a1.239,1.239,0,0,0-1.306,1.158V11.9a2.859,2.859,0,0,1-5.685.071V5.087a1.316,1.316,0,0,0-2.612,0V11.9a2.859,2.859,0,0,1-5.685.071V5.087a1.239,1.239,0,0,0-1.306-1.158H10.32C4.62,3.929,0,8.025,0,13.079v2.139a1.239,1.239,0,0,0,1.306,1.158H95.694A1.239,1.239,0,0,0,97,15.218V13.079C97,8.026,92.38,3.929,86.68,3.929ZM15.047,12.951a2.182,2.182,0,0,1-.042.244,1.826,1.826,0,0,1-.068.24c-.027.077-.059.156-.093.232a2.488,2.488,0,0,1-.119.223q-.065.108-.142.212a2.434,2.434,0,0,1-.167.2,2.6,2.6,0,0,1-.188.185c-.064.057-.135.114-.207.166s-.148.1-.225.146-.157.087-.239.126-.167.074-.252.106-.172.059-.261.084-.178.044-.269.06-.184.029-.277.037-.185.012-.278.012-.188-.005-.28-.012-.184-.022-.275-.037-.182-.037-.271-.06-.176-.052-.261-.084-.17-.067-.252-.106-.161-.081-.239-.126a2.435,2.435,0,0,1-.224-.146c-.072-.052-.142-.109-.209-.166a2.554,2.554,0,0,1-.187-.185c-.059-.064-.114-.131-.165-.2s-.1-.139-.144-.212a2.171,2.171,0,0,1-.117-.223,2.224,2.224,0,0,1-.095-.232c-.027-.079-.049-.16-.068-.24a2.225,2.225,0,0,1-.042-.244,2.143,2.143,0,0,1-.013-.249,2.136,2.136,0,0,1,.055-.492c.019-.081.042-.161.068-.24a2.224,2.224,0,0,1,.095-.232,2.147,2.147,0,0,1,.117-.222,2.389,2.389,0,0,1,.144-.213c.051-.067.106-.134.165-.2s.121-.126.187-.185.137-.114.209-.166a2.436,2.436,0,0,1,.224-.146q.117-.068.239-.126c.082-.039.167-.074.252-.106s.174-.059.261-.084.18-.044.271-.06.184-.029.275-.035a3.108,3.108,0,0,1,.559,0c.093.007.186.02.277.035s.182.037.269.06.176.052.261.084.171.067.252.106.163.081.239.126.153.094.225.146.142.109.207.166a2.52,2.52,0,0,1,.188.185c.059.064.116.131.167.2a2.327,2.327,0,0,1,.142.213q.065.108.119.222c.034.076.066.155.093.232a1.8,1.8,0,0,1,.068.24,2.286,2.286,0,0,1,.057.492A2.229,2.229,0,0,1,15.047,12.951Zm8.04,0a2.182,2.182,0,0,1-.042.244c-.019.081-.042.161-.068.24a2.224,2.224,0,0,1-.095.232,2.147,2.147,0,0,1-.117.222,2.389,2.389,0,0,1-.144.213c-.051.067-.106.134-.165.2s-.123.126-.187.185-.137.114-.209.166a2.435,2.435,0,0,1-.224.146q-.117.068-.239.126c-.082.039-.167.074-.252.106s-.174.059-.261.084-.18.044-.271.06-.184.029-.275.037-.188.012-.28.012-.185-.005-.278-.012-.186-.022-.277-.037-.182-.037-.269-.06-.176-.052-.261-.084-.171-.067-.252-.106-.163-.081-.239-.126-.153-.094-.225-.146-.142-.109-.207-.166a2.521,2.521,0,0,1-.188-.185c-.059-.064-.116-.131-.167-.2a2.328,2.328,0,0,1-.142-.213q-.065-.108-.119-.222c-.034-.076-.066-.155-.093-.232a1.8,1.8,0,0,1-.068-.24,2.285,2.285,0,0,1-.057-.492,2.319,2.319,0,0,1,.057-.492,1.826,1.826,0,0,1,.068-.24c.027-.077.059-.156.093-.232s.076-.149.119-.223.091-.143.142-.212a2.435,2.435,0,0,1,.167-.2,2.6,2.6,0,0,1,.188-.185c.064-.057.135-.114.207-.166s.148-.1.225-.146.157-.087.239-.126.165-.074.252-.106.172-.059.261-.084.178-.044.269-.06.184-.029.277-.037a3.452,3.452,0,0,1,.559,0c.091.008.184.022.275.037s.182.037.271.06.176.052.261.084.17.067.252.106.161.081.239.126a2.435,2.435,0,0,1,.224.146c.072.052.142.109.209.166s.129.121.187.185a2.373,2.373,0,0,1,.165.2c.051.069.1.139.144.212a2.36,2.36,0,0,1,.117.223,2.224,2.224,0,0,1,.095.232c.027.079.049.16.068.24a2.188,2.188,0,0,1,.042.245,2.1,2.1,0,0,1,.013.247A2.181,2.181,0,0,1,23.087,12.951Zm8.148,0c-.009.081-.025.163-.042.244s-.042.161-.068.24a2.225,2.225,0,0,1-.095.232,2.3,2.3,0,0,1-.119.223,2.192,2.192,0,0,1-.142.212,2.45,2.45,0,0,1-.165.2c-.059.064-.123.126-.187.185s-.137.114-.209.166a2.435,2.435,0,0,1-.224.146,2.643,2.643,0,0,1-.239.126c-.082.039-.167.074-.252.106s-.174.059-.261.084-.18.044-.271.06-.184.029-.275.037-.188.012-.28.012-.185,0-.278-.012-.186-.022-.277-.037-.182-.037-.269-.06-.176-.052-.264-.084-.169-.067-.25-.106a2.414,2.414,0,0,1-.239-.126c-.077-.045-.153-.094-.225-.146s-.142-.109-.207-.166a2.521,2.521,0,0,1-.188-.185,2.434,2.434,0,0,1-.167-.2q-.077-.1-.142-.212c-.044-.074-.083-.148-.119-.223s-.066-.155-.093-.232a1.8,1.8,0,0,1-.068-.24,2.285,2.285,0,0,1-.057-.492,2.318,2.318,0,0,1,.057-.492,1.826,1.826,0,0,1,.068-.24c.027-.077.059-.156.093-.232a2.459,2.459,0,0,1,.119-.222,2.327,2.327,0,0,1,.142-.213c.051-.067.108-.134.167-.2a2.6,2.6,0,0,1,.188-.185c.064-.057.135-.114.207-.166s.148-.1.225-.146.157-.087.239-.126.165-.074.25-.106.174-.059.264-.084.178-.044.269-.06.184-.029.277-.037a3.452,3.452,0,0,1,.559,0c.091.008.184.022.275.037s.182.037.271.06.176.052.261.084.17.067.252.106.161.081.239.126a2.435,2.435,0,0,1,.224.146c.072.052.142.109.209.166s.129.121.187.185.114.131.165.2a2.023,2.023,0,0,1,.142.213,2.129,2.129,0,0,1,.119.222,2.224,2.224,0,0,1,.095.232c.027.079.049.16.068.24s.032.163.042.245a2.1,2.1,0,0,1,.013.247A2.181,2.181,0,0,1,31.235,12.951Z" transform="translate(0 -3.929)"/>
        </g>
      </g>
    </g>
  </g>
</svg>
