<svg id="Layer_1" data-name="Layer 1" xmlns="http://www.w3.org/2000/svg" viewBox="0 0 329.64 755.88"><defs><style>.cls-1{fill:#2a2a2a;}.cls-2{fill:none;stroke:#2a2a2a;}</style></defs><title>jeril</title><g id="jeril"><path class="cls-1" d="M120.24,119V.5h27.14V119A28.39,28.39,0,0,1,119,147.38H28.85a27.34,27.34,0,0,1-20.09-8.26A27.36,27.36,0,0,1,.5,119V102.3H27.42V119a1.26,1.26,0,0,0,1.06,1.43,1.15,1.15,0,0,0,.37,0H119C119.84,120.45,120.24,120,120.24,119Z"/><path class="cls-1" d="M329.14.5V27.43H221.22V60.48h86.91v26.9H221.22v33H329.14v27h-135V.5Z"/><path class="cls-2" d="M120.24,119V.5h27.14V119A28.39,28.39,0,0,1,119,147.38H28.85a27.34,27.34,0,0,1-20.09-8.26A27.36,27.36,0,0,1,.5,119V102.3H27.42V119a1.26,1.26,0,0,0,1.06,1.43,1.15,1.15,0,0,0,.37,0H119C119.84,120.45,120.24,120,120.24,119Z"/><path class="cls-2" d="M329.14.5V27.43H221.22V60.48h86.91v26.9H221.22v33H329.14v27h-135V.5Z"/><path class="cls-1" d="M157.78,333.06v39.58A28.53,28.53,0,0,1,129.22,401h-8l36.52,43.45v6.94H128.4L86,401H37.83v50.39H10.9V304.7H129.22a28.55,28.55,0,0,1,28.56,28.36Zm-118.52,41h90a1.26,1.26,0,0,0,1.43-1.06,1.09,1.09,0,0,0,0-.36V333.06a1.27,1.27,0,0,0-1.09-1.43,1,1,0,0,0-.34,0h-90a1.26,1.26,0,0,0-1.43,1.06,1.15,1.15,0,0,0,0,.37v39.58a1.26,1.26,0,0,0,1.07,1.42A1.09,1.09,0,0,0,39.26,374.06Z"/><path class="cls-1" d="M203.07,451.38V304.5H230V451.38Z"/><path class="cls-2" d="M157.78,333.06v39.58A28.53,28.53,0,0,1,129.22,401h-8l36.52,43.45v6.94H128.4L86,401H37.83v50.39H10.9V304.7H129.22a28.55,28.55,0,0,1,28.56,28.36Zm-118.52,41h90a1.26,1.26,0,0,0,1.43-1.06,1.09,1.09,0,0,0,0-.36V333.06a1.27,1.27,0,0,0-1.09-1.43,1,1,0,0,0-.34,0h-90a1.26,1.26,0,0,0-1.43,1.06,1.15,1.15,0,0,0,0,.37v39.58a1.26,1.26,0,0,0,1.07,1.42A1.09,1.09,0,0,0,39.26,374.06Z"/><path class="cls-2" d="M203.07,451.38V304.5H230V451.38Z"/><path class="cls-1" d="M11.31,755.38V608.3H38.24V728.45h120v26.93Z"/><path class="cls-2" d="M11.31,755.38V608.3H38.24V728.45h120v26.93Z"/></g></svg>