<svg xmlns="http://www.w3.org/2000/svg" viewBox="0 0 768 340"><defs><style>.cls-1{fill:#fff;}</style></defs><title>Logo_main</title><g id="Layer_2" data-name="Layer 2"><rect y="-2" width="768" height="344"/></g><g id="logo"><path class="cls-1" d="M92,221.78c-.61,0-.91-.4-.91-1.19q0-6.09,5-13.74a80.85,80.85,0,0,1,13.42-15.19,259.16,259.16,0,0,1,34.76-26.58q14.83-18.65,24.44-32.89t9.6-18.7c0-.91-.14-1.46-.41-1.64a4.34,4.34,0,0,0-2-.27q-6.82,0-16.61,5.23A104.9,104.9,0,0,0,141.34,129a106.39,106.39,0,0,0-14.19,14.24q-5.93,7.29-5.92,11.2,0,3.36,4.37,3.36T137,154.16a87.87,87.87,0,0,0,11.92-7.28l5-3.64.82.19a89.12,89.12,0,0,1-14.2,10,54.53,54.53,0,0,1-7.87,3.68,21.91,21.91,0,0,1-7.69,1.69q-5.37,0-5.37-4.55t5.19-12a88.85,88.85,0,0,1,13-14.56,79.22,79.22,0,0,1,18.29-12.33q10.47-5.19,19.66-5.19c1.51,0,2.52.31,3,.91a5.21,5.21,0,0,1,.73,3.19q0,11.73-26.3,45.31c4.25-2.6,6.57-3.91,7-3.91s.59.09.59.27a.72.72,0,0,1-.36.55,90.72,90.72,0,0,0-8.55,4.82,516.54,516.54,0,0,1-36.5,41.32Q96.49,221.78,92,221.78Zm1.91-2.37c0,.24.09.37.27.37q2.64,0,17.16-15.88t31.16-36.63a243.46,243.46,0,0,0-25.66,19.56q-14.1,12.19-19.74,22.3Q93.92,214.86,93.93,219.41Z"/><path class="cls-1" d="M158.08,176.1c0,.78.31,1.18.91,1.18a19,19,0,0,0,4.92-1.5,44.23,44.23,0,0,0,6.28-3l8.91-5.64.1,1.18q-9.55,6.38-14.25,8.1a23.67,23.67,0,0,1-6.23,1.73c-1.7,0-2.55-1.06-2.55-3.19a14.49,14.49,0,0,1,3.1-8.55,27.78,27.78,0,0,1,7.23-7,57.29,57.29,0,0,1,8-4.46,16.17,16.17,0,0,1,5.87-1.73c1.33,0,2,.46,2,1.37q0,3.36-8,8.19a59.3,59.3,0,0,1-13.24,6.37Q158.08,173.64,158.08,176.1Zm21-21.48q0-.27-.36-.27-2.46,0-7.64,4.27a54.91,54.91,0,0,0-9,9.38q4.54-1.45,10.78-6.56T179.1,154.62Z"/><path class="cls-1" d="M206.77,164.45l.73.82c-2.8,1.7-5.07,3.12-6.83,4.27a8.46,8.46,0,0,1-4,1.73c-1.34,0-2-.57-2-1.73a18.52,18.52,0,0,1,1.42-5c.94-2.51,1.59-4.29,1.95-5.32l-.27-.27a1.38,1.38,0,0,0-.82.36q-9.19,7.37-11.88,9.92a72.81,72.81,0,0,0-5.18,5.46l-2.73,3.18a4.43,4.43,0,0,1-.32.37,3.55,3.55,0,0,1-1.87.27q-1.59,0-1.59-.27.18-.27,2.28-2.55,5.08-5.55,9.19-10.65l-2.64,1.55q-4.19,2.55-6.1,3.82l-.36-1,5.73-3.64a33.73,33.73,0,0,0,5.32-4.18,19.68,19.68,0,0,0,3.05-3.55c.55-.91,1-1.67,1.46-2.28s.82-.91,1.18-.91a4.29,4.29,0,0,1,1.73.64,7.62,7.62,0,0,1-1.46,3.18,46.93,46.93,0,0,1-2.91,4.1l-1.45,1.73q0,.18.09.18a1,1,0,0,0,.63-.32l3-2.55c1.79-1.48,3.35-2.76,4.69-3.82a34.82,34.82,0,0,1,4.59-3.05,9.23,9.23,0,0,1,3.78-1.45c.79,0,1.18.18,1.18.54s-1.48,1.52-4.46,3.1c-.66.36-1.68,2.11-3,5.23s-2.05,5.41-2.05,6.87c0,.3.29.45.86.45a8.82,8.82,0,0,0,3.42-1.63Z"/><path class="cls-1" d="M199.4,176.82q1.64,0,16.29-9.64l.09,1.18L212,170.82q-3.72,2.46-8.19,4.87c-3,1.6-4.94,2.41-5.91,2.41-.73,0-1.09-.59-1.09-1.78s1.83-4.24,5.5-9.19a128.31,128.31,0,0,1,11.7-13.69,1.8,1.8,0,0,1,1.36-.73l2.09.18c.49.06.73.2.73.41a2.29,2.29,0,0,1-.54,1Q214,158,207,166.09t-8.05,10.37C198.94,176.7,199.09,176.82,199.4,176.82Zm25.38-30.53a4,4,0,0,0,1.28-2.14,1.83,1.83,0,0,0-.5-1.27,1.91,1.91,0,0,0-1.46-.55,3.83,3.83,0,0,0-2.32,1.28,3.67,3.67,0,0,0-1.36,2.68c0,.94.51,1.41,1.54,1.41A3.76,3.76,0,0,0,224.78,146.29Z"/><path class="cls-1" d="M266.64,116.49c.55,0,.82.33.82,1q0,4.37-19.52,23.25t-31,26.89c-2.67,3.82-4,6.59-4,8.28,0,.55.13.82.37.82q3.74,0,13.38-6l5.46-3.55.09,1.18-5.19,3.28q-10.56,6.54-14.65,6.55c-.73,0-1.09-.58-1.09-1.73q0-5.28,7.37-15.61a167.79,167.79,0,0,1,16.88-20,212.51,212.51,0,0,1,18.65-17Q263.37,116.49,266.64,116.49Zm-1.72,1.64q-2.73,0-20.12,17.47t-26.39,29.94q8.39-6.37,27.53-25T265.1,118.4A.29.29,0,0,0,264.92,118.13Z"/><path class="cls-1" d="M309.32,168.36a94.19,94.19,0,0,1-13.24,7.28,41.53,41.53,0,0,1-11.87,3.73l-9.56,10.74a3.69,3.69,0,0,1-2.37,1.46q-3.63,0-3.64-8.65A61.1,61.1,0,0,1,271.1,166c.61-2.12,1.12-3.18,1.55-3.18l.91.91a17.11,17.11,0,0,0-.46,3.64,10.21,10.21,0,0,0,2.82,7.55,10.59,10.59,0,0,0,7,3.1q18.93-23.38,37.31-47.23-2.1,1.46-3.64,2.55t-7.37,4.82q-5.82,3.73-10.42,6.14a89.73,89.73,0,0,1-10.28,4.55A28,28,0,0,1,279,151q-5.37,0-5.37-5.46a19,19,0,0,1,2.09-7.83,38.14,38.14,0,0,1,6.33-9.14,60.84,60.84,0,0,1,9.73-8.65,48.67,48.67,0,0,1,13.2-6.5,50.1,50.1,0,0,1,15.88-2.55q4.1,0,4.09,2.64,0,2.82-4.05,7.14a41.93,41.93,0,0,1-10,7.69c-3.95,2.25-7.46,3.37-10.56,3.37-1.09-.06-1.63-.52-1.63-1.37a3.84,3.84,0,0,1,1.13-2.55c.76-.84,1.37-1.27,1.82-1.27s.68.09.68.27-.15.41-.45.69a1.09,1.09,0,0,0-.45.72c0,.22.18.32.54.32,2.24,0,5.13-.94,8.65-2.82a45,45,0,0,0,9.19-6.41c2.6-2.4,3.91-4.27,3.91-5.6,0-1.15-1-1.73-3-1.73q-6.74,0-15,4.14A70.83,70.83,0,0,0,291,125.86a77.5,77.5,0,0,0-11,11.52q-4.45,5.87-4.46,9.23,0,3.19,4.09,3.19,6,0,16.43-5.33a148.82,148.82,0,0,0,18.15-10.78q7.74-5.46,9-7.28a2.67,2.67,0,0,1,2.23-.82c1.06,0,1.6.3,1.6.91a4.61,4.61,0,0,1-1,2.37q-16.74,22.2-40.58,49.14,9.19-1.09,22.48-10l6.09-3.83a2.75,2.75,0,0,1,1.37-.36c.48,0,.73.06.73.18s-.09.25-.28.37Zm-35.85,20.57c.24,0,.69-.34,1.36-1s3-3.49,7-8.47a11.64,11.64,0,0,1-6.55-2.5,11.13,11.13,0,0,1-3.83-5.32c-.06-.19-.13-.28-.22-.28a8.9,8.9,0,0,0-.37,2.51c-.15,1.67-.22,3.86-.22,6.59Q270.65,188.94,273.47,188.93Z"/><path class="cls-1" d="M350.54,137.15l-.36.73q0,.72,2.64.72a43.06,43.06,0,0,0,5.87-.45,54.84,54.84,0,0,0,9.87-2.87A81.69,81.69,0,0,0,380,130.23a57.25,57.25,0,0,0,8.47-5.19q14.75-15.2,18-17.56a4.63,4.63,0,0,1,2.59-1.18c.7,0,1,.24,1,.73q0,1.91-6.74,8A66.87,66.87,0,0,1,393,123.13q-1.18,1.45-6.65,8t-10.51,12.74q-5,6.19-10.6,13.2-12.29,15.64-12.28,19.56,0,.18.27.18a6,6,0,0,1,1.46-.36q.36,0,.36.27,0,.83-2.64,2.37a9.15,9.15,0,0,1-3.91,1.55c-.55,0-.82-.52-.82-1.55q0-4.09,5.64-12.38a153.68,153.68,0,0,1,12.38-15.83q6.74-7.56,12.87-14.24t6.6-7.6-.18-.09a106.39,106.39,0,0,1-26.3,11.55,32.38,32.38,0,0,1-8.78,1.46c-2.46,0-3.69-.76-3.69-2.27a2.77,2.77,0,0,1,1.41-2.19,4.34,4.34,0,0,1,2.19-1C350.28,136.51,350.54,136.72,350.54,137.15Zm39.13,42.49a20,20,0,0,0,7.42-1.86,57.64,57.64,0,0,0,7.6-3.82c2.12-1.31,4.62-2.88,7.5-4.74s4.95-3.15,6.19-3.91a7.28,7.28,0,0,0,1.87-1.32c0-.12-.25-.18-.73-.18a2.75,2.75,0,0,0-1.37.36L412.06,168q-15.84,10.63-22.3,10.64-7.54,0-7.55-15.38a93.74,93.74,0,0,1,2.55-20.74q1.28,3.27,5.82,3.27t12.83-4.55a112.57,112.57,0,0,0,15.65-10.37,132.93,132.93,0,0,0,12.83-11.42q5.48-5.6,5.47-7.6c0-.91-1-1.37-2.92-1.37q-1.28,0-6.28,6l-2.27,2.73a131.9,131.9,0,0,1-19,16.7q-10.79,7.88-16.79,7.87a4.54,4.54,0,0,1-4.83-3.64q1.63-6.18,2.55-7.19l.18-.36a.16.16,0,0,0-.18-.18c-.85,0-2,1.31-3.5,4a50.55,50.55,0,0,0-4.19,11.15,55.87,55.87,0,0,0-2,14.7A25.31,25.31,0,0,0,381,174.69,9.27,9.27,0,0,0,389.67,179.64Z"/><path class="cls-1" d="M442.27,167.18l.09,1.18q-14.66,9.73-17.84,9.74c-.36,0-.54-.21-.54-.64a15.87,15.87,0,0,1,1.45-5.46l.46-1.27c0-.12-.11-.19-.32-.19a46.53,46.53,0,0,0-5.32,3.64q-4.92,3.65-6.42,3.64t-1.5-2.73q0-7.54,8.6-14.74a31.22,31.22,0,0,1,20.7-7.19c.73,0,1.09.31,1.09.91s-2.85,4.14-8.55,10.6-8.56,10.36-8.56,11.7c0,.24.19.36.55.36s1.91-.79,4.64-2.36,5.31-3.16,7.74-4.74Zm-14.47.09a58,58,0,0,0,6-6.28c3-3.4,4.46-5.37,4.46-5.92q0-.36-.72-.36-4.2,0-9.74,3.87a43.55,43.55,0,0,0-9.42,8.78c-2.58,3.28-3.87,5.91-3.87,7.92a.48.48,0,0,0,.55.54,4.49,4.49,0,0,0,1.77-.68c.82-.45,1.82-1.09,3-1.91s2.19-1.53,3-2.14C425.8,168.91,427.43,167.63,427.8,167.27Z"/><path class="cls-1" d="M453.92,178.55c-.73,0-1.1-.41-1.1-1.23a6,6,0,0,1,.59-2.5,32.35,32.35,0,0,1,1.78-3.18,21.41,21.41,0,0,0,2-3.73l-.09-.1q-13.74,10-16.93,10c-.66,0-1-.6-1-1.82a14.61,14.61,0,0,1,3.42-9.1,28.07,28.07,0,0,1,8.23-7.14,54.39,54.39,0,0,1,9.65-4.41,26.14,26.14,0,0,1,8.1-1.64q18.29-20.11,28.57-33.4a6.24,6.24,0,0,1,4.73-2.82c.55,0,.82.24.82.73s-4,5.31-12.1,14.47-16.14,18.5-24.21,28-12.1,15-12.1,16.38q0,.36.45.36a17.87,17.87,0,0,0,3.64-1.55q3.19-1.54,5.74-3.09l8.91-5.64.1,1.18Q458,178.56,453.92,178.55Zm-12.56-2.09q2.44,0,12.1-7.14t13.83-13.7c0-.42-.36-.64-1.09-.64q-2.55,0-8.65,3.83a65.87,65.87,0,0,0-11.32,9Q441,172.91,441,176C441,176.31,441.11,176.46,441.36,176.46Z"/><path class="cls-1" d="M499.78,167.18l.09,1.18q-14.65,9.73-17.84,9.74c-.36,0-.54-.21-.54-.64a15.87,15.87,0,0,1,1.45-5.46l.46-1.27c0-.12-.11-.19-.32-.19a46.53,46.53,0,0,0-5.32,3.64q-4.92,3.65-6.42,3.64t-1.5-2.73q0-7.54,8.6-14.74a31.22,31.22,0,0,1,20.7-7.19c.73,0,1.09.31,1.09.91s-2.85,4.14-8.55,10.6-8.55,10.36-8.55,11.7q0,.36.54.36c.37,0,1.91-.79,4.64-2.36s5.31-3.16,7.74-4.74Zm-14.47.09a58,58,0,0,0,6-6.28c3-3.4,4.46-5.37,4.46-5.92q0-.36-.72-.36-4.2,0-9.74,3.87a43.55,43.55,0,0,0-9.42,8.78c-2.58,3.28-3.87,5.91-3.87,7.92a.48.48,0,0,0,.55.54,4.49,4.49,0,0,0,1.77-.68c.82-.45,1.82-1.09,3-1.91s2.19-1.53,3-2.14C483.31,168.91,485,167.63,485.31,167.27Z"/><path class="cls-1" d="M510.42,154c1.52,0,2.28.25,2.28.73a1.47,1.47,0,0,1-.41.77c-.27.34-1,1.32-2.28,3s-2.47,3.29-3.68,5-2.52,3.47-3.91,5.42q-4.74,6.54-4.74,7.73c0,.06.06.09.19.09q4.9,0,14.37-9.64a33.42,33.42,0,0,1,4.24-8.42c2-2.94,3.5-4.42,4.59-4.42a.73.73,0,0,1,.82.82q0,3.2-8.19,11.74a7.47,7.47,0,0,0-.55,2.5c0,.7.25,1.05.73,1.05q2.55,0,7.37-3.18l.46.82q-5.93,3.9-8.56,3.91c-1,0-1.45-.64-1.45-1.91a7,7,0,0,1,.09-1.28q-9.65,9.65-15.29,9.65c-.91,0-1.36-.64-1.36-1.91s1.17-3.79,3.5-7.55a120.5,120.5,0,0,1,7.05-10.24c2.37-3.06,3.73-4.6,4.1-4.6Zm9.92,1.91c-.54,0-1.41.93-2.59,2.78a43.88,43.88,0,0,0-3.14,5.87q6-6.64,6-8.37A.24.24,0,0,0,520.34,155.89Z"/><path class="cls-1" d="M547.73,167.18l.1,1.18q-14.66,9.73-17.84,9.74c-.36,0-.55-.21-.55-.64A15.94,15.94,0,0,1,530.9,172l.45-1.27c0-.12-.1-.19-.31-.19a46,46,0,0,0-5.33,3.64q-4.9,3.65-6.41,3.64c-1,0-1.51-.91-1.51-2.73q0-7.54,8.6-14.74a31.27,31.27,0,0,1,20.71-7.19c.73,0,1.09.31,1.09.91s-2.85,4.14-8.56,10.6-8.55,10.36-8.55,11.7c0,.24.18.36.55.36s1.91-.79,4.64-2.36,5.31-3.16,7.73-4.74Zm-14.47.09a56.75,56.75,0,0,0,6-6.28q4.46-5.1,4.46-5.92c0-.24-.24-.36-.73-.36q-4.18,0-9.74,3.87a43.27,43.27,0,0,0-9.41,8.78c-2.58,3.28-3.87,5.91-3.87,7.92a.48.48,0,0,0,.55.54,4.49,4.49,0,0,0,1.77-.68,35.12,35.12,0,0,0,3-1.91c1.19-.82,2.2-1.53,3.05-2.14C531.26,168.91,532.9,167.63,533.26,167.27Z"/><path class="cls-1" d="M546.73,169.09l-.27-1.09,3-1.91q6.82-4.56,8.56-6.42c1.15-1.24,1.85-2,2.09-2.32q2.37-3,2.64-3.37c.73.25,1.09,1,1.09,2.19-1.21,1.76-2.85,3.86-4.91,6.32s-3.77,4.49-5.1,6.1a11.73,11.73,0,0,0-2,2.77c0,.25,0,.37.13.37a6.89,6.89,0,0,0,1.37-1q1.23-1,6.69-4.78,11-7.63,14-9.69t3.87-2c.58,0,.86.59.86,1.77s-.91,3-2.73,5.32a51.89,51.89,0,0,1-6,6.56c-5.83,5.33-8.74,8.28-8.74,8.82,0,.06.12.09.37.09q1.08,0,12.28-7.19l3.73-2.45.09,1.18q-14.64,9.73-17.83,9.74a.48.48,0,0,1-.55-.55q0-3.36,4.23-8a112.3,112.3,0,0,1,8.42-8.28q4.19-3.69,4.19-4.87c0-.12-.06-.18-.19-.18q-2.64,1.28-12.24,8.05t-11.23,8c-2.86,2.13-4.36,3.23-4.51,3.32a6.74,6.74,0,0,0-.95,1,4.52,4.52,0,0,1-3,1.73,13.23,13.23,0,0,1-2.27-.27.26.26,0,0,1-.09-.19,17.21,17.21,0,0,1,1.54-1.72c1-1,1.94-2.07,2.92-3.1q4.81-5.37,6.64-7.64Z"/><polygon class="cls-1" points="98.5 198.5 161.17 195.58 223.84 192.86 349.21 187.75 474.6 183.11 537.29 180.95 600 179 537.33 181.93 474.65 184.64 349.29 189.75 223.91 194.39 161.21 196.55 98.5 198.5"/><circle class="cls-1" cx="592" cy="175" r="1"/><circle class="cls-1" cx="582" cy="184" r="1"/></g></svg>