<svg id="Layer_1" data-name="Layer 1" xmlns="http://www.w3.org/2000/svg" viewBox="0 0 250.5 58"><defs><style>.cls-1{fill:none;}.cls-2{isolation:isolate;}.cls-3{fill:#fff;}</style></defs><title>Logo_main</title><g id="Logo_main" data-name="Logo main"><rect id="Rectangle_15" data-name="Rectangle 15" class="cls-1" x="13.39" y="10.78" width="237.11" height="40.82"/><g id="Jeril_G_Kadavan" data-name="Jeril G Kadavan" class="cls-2"><g class="cls-2"><path class="cls-3" d="M1.07,57.72c-.27,0-.41-.18-.41-.53A11.61,11.61,0,0,1,2.93,51,36.59,36.59,0,0,1,9,44.15a116.29,116.29,0,0,1,15.66-12q6.69-8.4,11-14.82T40,8.93c0-.41-.06-.65-.19-.74a1.94,1.94,0,0,0-.88-.12,16.65,16.65,0,0,0-7.48,2.36A48.63,48.63,0,0,0,16.9,22.34q-2.67,3.29-2.67,5c0,1,.66,1.52,2,1.52a12,12,0,0,0,5.12-1.64A39.46,39.46,0,0,0,26.69,24L29,22.34l.37.08a39.83,39.83,0,0,1-6.4,4.51,25.43,25.43,0,0,1-3.54,1.66,9.88,9.88,0,0,1-3.47.76c-1.61,0-2.42-.68-2.42-2.05s.78-3.16,2.34-5.39a39.79,39.79,0,0,1,5.86-6.56,35.53,35.53,0,0,1,8.24-5.56,20,20,0,0,1,8.86-2.33,1.67,1.67,0,0,1,1.35.41,2.33,2.33,0,0,1,.33,1.43q0,5.29-11.85,20.42A19.14,19.14,0,0,1,31.76,28c.18,0,.26,0,.26.12a.31.31,0,0,1-.16.24A41.19,41.19,0,0,0,28,30.5,234.29,234.29,0,0,1,11.56,49.11Q3.08,57.72,1.07,57.72Zm.86-1.06c0,.1,0,.16.12.16q1.2,0,7.73-7.16t14-16.5A108.5,108.5,0,0,0,12.26,42Q5.91,47.47,3.37,52A9.74,9.74,0,0,0,1.93,56.66Z"/><path class="cls-3" d="M30.83,37.14c0,.35.14.53.41.53A8.48,8.48,0,0,0,33.46,37a20.62,20.62,0,0,0,2.83-1.34l4-2.54,0,.53a35.34,35.34,0,0,1-6.42,3.65,10.59,10.59,0,0,1-2.81.78c-.76,0-1.15-.48-1.15-1.43a6.57,6.57,0,0,1,1.4-3.86,12.48,12.48,0,0,1,3.26-3.15,25,25,0,0,1,3.61-2,7.24,7.24,0,0,1,2.64-.78c.6,0,.9.2.9.61,0,1-1.19,2.24-3.59,3.69a26.62,26.62,0,0,1-6,2.87A6.32,6.32,0,0,0,30.83,37.14Zm9.48-9.68c0-.08-.06-.12-.17-.12-.74,0-1.88.64-3.44,1.93a24.47,24.47,0,0,0-4.06,4.22,16.12,16.12,0,0,0,4.86-3C39.37,29,40.31,28,40.31,27.46Z"/><path class="cls-3" d="M52.77,31.89l.33.37c-1.26.77-2.29,1.41-3.08,1.93a3.82,3.82,0,0,1-1.8.78q-.9,0-.9-.78A8.5,8.5,0,0,1,48,31.91c.43-1.13.72-1.93.88-2.4l-.12-.12a.68.68,0,0,0-.37.16Q44.2,32.88,43,34c-.81.77-1.58,1.59-2.34,2.46l-1.23,1.44-.14.16a1.55,1.55,0,0,1-.84.13c-.48,0-.72-.05-.72-.13s.4-.46,1-1.15q2.3-2.49,4.14-4.79l-1.19.69c-1.26.77-2.17,1.34-2.75,1.73l-.16-.45,2.58-1.65a14.94,14.94,0,0,0,2.4-1.88A8.8,8.8,0,0,0,45.14,29q.38-.61.66-1c.19-.28.37-.42.53-.42a1.93,1.93,0,0,1,.78.29,3.52,3.52,0,0,1-.65,1.44,20.93,20.93,0,0,1-1.32,1.84l-.65.78c0,.06,0,.08,0,.08a.41.41,0,0,0,.28-.14l1.38-1.15C47,30,47.7,29.44,48.3,29a14.57,14.57,0,0,1,2.07-1.37,4.18,4.18,0,0,1,1.7-.66c.36,0,.53.08.53.25s-.66.68-2,1.39a6.15,6.15,0,0,0-1.38,2.36A9.08,9.08,0,0,0,48.3,34q0,.21.39.21a4.07,4.07,0,0,0,1.54-.74Z"/><path class="cls-3" d="M49.45,37.47q.73,0,7.34-4.35l0,.53-1.68,1.11Q53.46,35.87,51.46,37A7.65,7.65,0,0,1,48.79,38c-.33,0-.49-.27-.49-.8s.83-1.91,2.48-4.14a57.74,57.74,0,0,1,5.27-6.17.81.81,0,0,1,.61-.33l1,.08c.21,0,.32.09.32.19a1.05,1.05,0,0,1-.24.47c-1.1,1.09-2.7,2.86-4.82,5.29a29,29,0,0,0-3.63,4.67C49.24,37.41,49.31,37.47,49.45,37.47ZM60.89,23.71a1.79,1.79,0,0,0,.57-1,.85.85,0,0,0-.23-.58.84.84,0,0,0-.65-.24,1.72,1.72,0,0,0-1,.57,1.66,1.66,0,0,0-.61,1.21c0,.43.23.64.7.64A1.69,1.69,0,0,0,60.89,23.71Z"/><path class="cls-3" d="M79.75,10.28c.24,0,.37.15.37.46q0,2-8.8,10.47a127,127,0,0,1-14,12.12c-1.2,1.72-1.8,3-1.8,3.73,0,.24,0,.37.16.37,1.12,0,3.13-.91,6-2.71l2.46-1.6,0,.53-2.34,1.48q-4.75,3-6.6,2.95c-.33,0-.49-.26-.49-.78,0-1.58,1.11-3.93,3.32-7a75.88,75.88,0,0,1,7.6-9,97.42,97.42,0,0,1,8.41-7.67C76.9,11.38,78.76,10.28,79.75,10.28ZM79,11q-1.23,0-9.06,7.87A119.35,119.35,0,0,0,58,32.38a164.37,164.37,0,0,0,12.4-11.25q8.63-8.38,8.63-10A.14.14,0,0,0,79,11Z"/><path class="cls-3" d="M90,33.65a41.15,41.15,0,0,1-6,3.28,18.87,18.87,0,0,1-5.35,1.69l-4.31,4.83a1.65,1.65,0,0,1-1.06.66c-1.1,0-1.64-1.3-1.64-3.9a27.8,27.8,0,0,1,1.1-7.62c.28-1,.51-1.44.7-1.44l.41.41a7.65,7.65,0,0,0-.2,1.64,4.59,4.59,0,0,0,1.27,3.41A4.75,4.75,0,0,0,78.06,38Q86.6,27.47,94.87,16.72l-1.64,1.15c-.46.33-1.57,1.05-3.32,2.17s-3.31,2.05-4.69,2.77a42.14,42.14,0,0,1-4.63,2.05,12.75,12.75,0,0,1-4.29,1,2.16,2.16,0,0,1-2.42-2.46,8.5,8.5,0,0,1,1-3.52,16.87,16.87,0,0,1,2.84-4.12,28.09,28.09,0,0,1,4.39-3.9,22.16,22.16,0,0,1,6-2.93,22.73,22.73,0,0,1,7.15-1.15c1.23,0,1.85.4,1.85,1.19s-.61,1.92-1.83,3.22a18.63,18.63,0,0,1-4.49,3.46,9.75,9.75,0,0,1-4.75,1.52c-.5,0-.74-.23-.74-.61a1.73,1.73,0,0,1,.51-1.15c.34-.38.62-.58.82-.58s.31,0,.31.13-.07.18-.21.3a.55.55,0,0,0-.2.33q0,.15.24.15a8.85,8.85,0,0,0,3.9-1.28,19.76,19.76,0,0,0,4.14-2.89c1.18-1.07,1.76-1.92,1.76-2.52s-.45-.78-1.35-.78a15.39,15.39,0,0,0-6.76,1.87,31.64,31.64,0,0,0-6.67,4.41,34.91,34.91,0,0,0-4.94,5.18c-1.34,1.77-2,3.15-2,4.17s.62,1.43,1.85,1.43q2.7,0,7.4-2.4A67.24,67.24,0,0,0,92.17,18a22.51,22.51,0,0,0,4.06-3.28,1.21,1.21,0,0,1,1-.37c.48,0,.72.14.72.41a2.08,2.08,0,0,1-.45,1.07Q90,25.87,79.21,38q4.14-.49,10.13-4.51l2.75-1.72a1.19,1.19,0,0,1,.61-.17q.33,0,.33.09a.21.21,0,0,1-.12.16ZM73.8,42.92c.11,0,.31-.15.62-.45s1.35-1.57,3.15-3.81a5.33,5.33,0,0,1-2.95-1.13,5,5,0,0,1-1.72-2.4c0-.08-.06-.12-.1-.12a3.52,3.52,0,0,0-.17,1.12c-.07.76-.1,1.75-.1,3C72.53,41.65,73,42.92,73.8,42.92Z"/><path class="cls-3" d="M99.51,19.59l-.17.33c0,.22.4.33,1.19.33a18.76,18.76,0,0,0,2.65-.21,24.73,24.73,0,0,0,4.45-1.29,36.32,36.32,0,0,0,5.16-2.28,25.58,25.58,0,0,0,3.81-2.33,109.24,109.24,0,0,1,8.12-7.92,2.16,2.16,0,0,1,1.17-.53c.32,0,.47.11.47.33q0,.86-3,3.59a29.86,29.86,0,0,1-4.72,3.67c-.35.43-1.35,1.64-3,3.6s-3.22,3.89-4.74,5.75-3.11,3.84-4.77,5.94q-5.53,7.05-5.54,8.81c0,.06,0,.09.13.09a2.65,2.65,0,0,1,.65-.17c.11,0,.17,0,.17.13,0,.24-.4.6-1.19,1.06a4.08,4.08,0,0,1-1.77.7c-.24,0-.37-.23-.37-.7q0-1.85,2.55-5.57a69.19,69.19,0,0,1,5.57-7.14q3-3.41,5.8-6.41a37,37,0,0,0,3-3.43s0,0-.09,0a48.27,48.27,0,0,1-11.84,5.21,14.61,14.61,0,0,1-4,.65c-1.11,0-1.66-.34-1.66-1a1.26,1.26,0,0,1,.63-1,2,2,0,0,1,1-.45C99.39,19.3,99.51,19.4,99.51,19.59Zm17.63,19.15a9,9,0,0,0,3.34-.84,27.13,27.13,0,0,0,3.42-1.72c1-.59,2.09-1.3,3.39-2.14s2.22-1.42,2.78-1.76a3.31,3.31,0,0,0,.84-.59q0-.09-.33-.09a1.22,1.22,0,0,0-.61.17l-2.75,1.72q-7.12,4.8-10,4.8-3.41,0-3.41-6.93A42.63,42.63,0,0,1,114.92,22a2.51,2.51,0,0,0,2.63,1.48c1.36,0,3.29-.69,5.78-2a51.32,51.32,0,0,0,7-4.68,61,61,0,0,0,5.78-5.14c1.64-1.68,2.46-2.83,2.46-3.43,0-.41-.44-.61-1.31-.61-.38,0-1.33.9-2.83,2.7l-1,1.23A59.11,59.11,0,0,1,124.91,19q-4.86,3.54-7.57,3.54a2,2,0,0,1-2.17-1.64,10.88,10.88,0,0,1,1.15-3.23l.08-.17a.07.07,0,0,0-.08-.08c-.39,0-.91.59-1.58,1.78a23,23,0,0,0-1.89,5,25,25,0,0,0-.88,6.63,11.41,11.41,0,0,0,1.25,5.61A4.19,4.19,0,0,0,117.14,38.74Z"/><path class="cls-3" d="M140.83,33.12l0,.53c-4.41,2.93-7.08,4.39-8,4.39-.16,0-.25-.09-.25-.29a7.15,7.15,0,0,1,.66-2.46l.2-.57s0-.08-.14-.08a21.31,21.31,0,0,0-2.4,1.64c-1.47,1.09-2.44,1.64-2.89,1.64s-.67-.41-.67-1.23q0-3.4,3.87-6.64a14.06,14.06,0,0,1,9.33-3.24c.33,0,.49.13.49.41s-1.29,1.86-3.85,4.77-3.86,4.67-3.86,5.27c0,.11.08.17.25.17a10.65,10.65,0,0,0,2.09-1.07q1.85-1.06,3.48-2.13Zm-6.51,0a26.46,26.46,0,0,0,2.7-2.83,10.62,10.62,0,0,0,2-2.66c0-.11-.11-.17-.33-.17a8,8,0,0,0-4.38,1.75,19.64,19.64,0,0,0-4.25,4,6.57,6.57,0,0,0-1.74,3.57.22.22,0,0,0,.25.25,2.12,2.12,0,0,0,.8-.31c.36-.21.82-.49,1.35-.86s1-.69,1.37-1C133.41,33.9,134.15,33.33,134.32,33.16Z"/><path class="cls-3" d="M146.08,38.25c-.33,0-.49-.19-.49-.56a2.59,2.59,0,0,1,.27-1.12,11.36,11.36,0,0,1,.8-1.44,10.46,10.46,0,0,0,.9-1.68l0,0q-6.2,4.52-7.63,4.51c-.3,0-.45-.27-.45-.82A6.55,6.55,0,0,1,141,33a12.6,12.6,0,0,1,3.71-3.22,24.72,24.72,0,0,1,4.35-2,11.77,11.77,0,0,1,3.64-.74q8.25-9.06,12.88-15a2.79,2.79,0,0,1,2.13-1.27c.25,0,.37.1.37.32s-1.82,2.4-5.45,6.52-7.28,8.34-10.91,12.63-5.45,6.75-5.45,7.38c0,.11.06.16.2.16a8.44,8.44,0,0,0,1.64-.69c1-.47,1.82-.93,2.58-1.4l4-2.54,0,.53Q147.94,38.25,146.08,38.25Zm-5.66-1q1.11,0,5.46-3.22a24.87,24.87,0,0,0,6.23-6.17c0-.19-.16-.28-.49-.28-.77,0-2.07.57-3.9,1.72a29.8,29.8,0,0,0-5.1,4q-2.35,2.31-2.36,3.71C140.26,37.24,140.31,37.3,140.42,37.3Z"/><path class="cls-3" d="M166.75,33.12l0,.53q-6.6,4.4-8,4.39c-.16,0-.25-.09-.25-.29a7.15,7.15,0,0,1,.66-2.46l.21-.57s-.05-.08-.15-.08a22.47,22.47,0,0,0-2.4,1.64c-1.47,1.09-2.44,1.64-2.89,1.64s-.67-.41-.67-1.23q0-3.4,3.87-6.64a14.06,14.06,0,0,1,9.33-3.24c.33,0,.49.13.49.41s-1.28,1.86-3.85,4.77-3.86,4.67-3.86,5.27c0,.11.08.17.25.17a10.65,10.65,0,0,0,2.09-1.07q1.84-1.06,3.48-2.13Zm-6.52,0a26.46,26.46,0,0,0,2.7-2.83,10.62,10.62,0,0,0,2-2.66c0-.11-.11-.17-.33-.17a8,8,0,0,0-4.38,1.75,19.64,19.64,0,0,0-4.25,4,6.57,6.57,0,0,0-1.74,3.57.22.22,0,0,0,.25.25,2.12,2.12,0,0,0,.8-.31c.37-.21.82-.49,1.35-.86s1-.69,1.37-1C159.32,33.9,160.06,33.33,160.23,33.16Z"/><path class="cls-3" d="M171.54,27.18c.69,0,1,.11,1,.32a.61.61,0,0,1-.19.35l-1,1.33c-.56.74-1.12,1.49-1.66,2.24s-1.14,1.56-1.77,2.44q-2.13,3-2.13,3.48s0,0,.08,0c1.48,0,3.64-1.44,6.48-4.34a15.32,15.32,0,0,1,1.91-3.79c.89-1.33,1.58-2,2.07-2a.32.32,0,0,1,.37.37c0,.95-1.23,2.72-3.69,5.29a3.14,3.14,0,0,0-.25,1.12c0,.32.11.47.33.47a6.93,6.93,0,0,0,3.32-1.43l.21.37c-1.78,1.18-3.07,1.76-3.86,1.76-.44,0-.65-.29-.65-.86a2.84,2.84,0,0,1,0-.57q-4.35,4.34-6.89,4.34c-.41,0-.62-.28-.62-.86a9,9,0,0,1,1.58-3.4,55,55,0,0,1,3.18-4.61c1.07-1.38,1.68-2.07,1.85-2.07ZM176,28c-.24,0-.63.41-1.17,1.25a19.55,19.55,0,0,0-1.41,2.64q2.7-3,2.7-3.77A.11.11,0,0,0,176,28Z"/><path class="cls-3" d="M188.35,33.12l0,.53q-6.6,4.4-8,4.39c-.17,0-.25-.09-.25-.29a7.15,7.15,0,0,1,.66-2.46l.2-.57s-.05-.08-.14-.08a20.28,20.28,0,0,0-2.4,1.64c-1.47,1.09-2.44,1.64-2.89,1.64s-.68-.41-.68-1.23c0-2.27,1.3-4.48,3.88-6.64a14.06,14.06,0,0,1,9.33-3.24c.32,0,.49.13.49.41s-1.29,1.86-3.86,4.77-3.85,4.67-3.85,5.27c0,.11.08.17.25.17a10.65,10.65,0,0,0,2.09-1.07q1.84-1.06,3.48-2.13Zm-6.52,0a25.19,25.19,0,0,0,2.71-2.83,10.62,10.62,0,0,0,2-2.66c0-.11-.11-.17-.33-.17a8,8,0,0,0-4.39,1.75,19.82,19.82,0,0,0-4.24,4,6.57,6.57,0,0,0-1.74,3.57.22.22,0,0,0,.24.25,2.06,2.06,0,0,0,.8-.31c.37-.21.82-.49,1.36-.86s1-.69,1.37-1C180.93,33.9,181.67,33.33,181.83,33.16Z"/><path class="cls-3" d="M187.9,34l-.12-.49,1.35-.86A26.57,26.57,0,0,0,193,29.74c.52-.56.84-.91,1-1l1.19-1.51c.33.11.49.43.49,1q-.83,1.18-2.22,2.85l-2.29,2.75a5.07,5.07,0,0,0-.9,1.25c0,.11,0,.16.06.16a3.21,3.21,0,0,0,.61-.43c.37-.29,1.38-1,3-2.15,3.3-2.3,5.41-3.75,6.31-4.37a4.87,4.87,0,0,1,1.74-.92c.26,0,.39.27.39.8a4.83,4.83,0,0,1-1.23,2.4,23.62,23.62,0,0,1-2.7,3q-3.94,3.6-3.94,4s.06,0,.17,0c.32,0,2.17-1.08,5.53-3.24l1.68-1.11,0,.53q-6.6,4.4-8,4.39a.22.22,0,0,1-.25-.25c0-1,.64-2.2,1.91-3.58a49,49,0,0,1,3.79-3.73c1.26-1.11,1.89-1.84,1.89-2.2,0-.05,0-.08-.09-.08a55.83,55.83,0,0,0-5.51,3.63c-2.88,2-4.57,3.23-5.06,3.59l-2,1.49a3,3,0,0,0-.44.43,2,2,0,0,1-1.35.78,5.18,5.18,0,0,1-1-.12.1.1,0,0,1,0-.08,7.12,7.12,0,0,1,.69-.78l1.31-1.39q2.17-2.43,3-3.45Z"/></g></g><g id="Group_21" data-name="Group 21"><path id="Path_28" data-name="Path 28" class="cls-3" d="M4.21,47.93,33,46.6l28.71-1.24L119.19,43l57.51-2.11,28.76-1L234.21,39l-28.75,1.33L176.7,41.55l-57.46,2.34L61.73,46.05,33,47Z"/></g><circle id="Ellipse_7" data-name="Ellipse 7" class="cls-3" cx="230.55" cy="37.15" r="0.46"/><circle id="Ellipse_8" data-name="Ellipse 8" class="cls-3" cx="225.96" cy="41.28" r="0.46"/></g></svg>