<?xml version="1.0" encoding="utf-8"?>
<!-- Generator: Adobe Illustrator 23.0.2, SVG Export Plug-In . SVG Version: 6.00 Build 0)  -->
<svg version="1.1" xmlns="http://www.w3.org/2000/svg" xmlns:xlink="http://www.w3.org/1999/xlink" x="0px" y="0px"
	 viewBox="0 0 768 340" style="enable-background:new 0 0 768 340;" xml:space="preserve">
<style type="text/css">
	.st0{display:none;}
	.st1{display:inline;}
	.st2{fill:none;}
	.st3{fill:#020202;}
</style>
<g id="Layer_2" class="st0">
	<rect y="-2" class="st1" width="768" height="344"/>
</g>
<g id="logo">
	<g>
		<path d="M6.5,264c-0.9,0-1.4-0.6-1.4-1.8c0-6.3,2.5-13.4,7.5-21.3c5-7.9,11.7-15.8,20-23.6C47.7,202.8,65,189,84.3,176.1
			c14.7-19.3,26.8-36.3,36.3-51c9.5-14.7,14.3-24.4,14.3-29c0-1.4-0.2-2.3-0.6-2.5c-0.4-0.3-1.4-0.4-2.9-0.4c-6.8,0-15,2.7-24.7,8.1
			c-9.7,5.4-18.7,11.7-26.9,18.9c-8.2,7.2-15.2,14.6-21.1,22.1c-5.9,7.5-8.8,13.3-8.8,17.4c0,3.5,2.2,5.2,6.5,5.2
			c4.3,0,10-1.9,16.9-5.6c6.9-3.8,12.9-7.5,17.7-11.3l7.4-5.6l1.2,0.3c-6,5.5-13,10.6-21.1,15.5c-3.4,2.1-7.3,4-11.7,5.7
			c-4.4,1.7-8.2,2.6-11.4,2.6c-5.3,0-8-2.4-8-7.1c0-4.7,2.6-10.9,7.7-18.6c5.1-7.7,11.6-15.2,19.4-22.6c7.8-7.4,16.8-13.8,27.2-19.1
			c10.4-5.4,20.1-8,29.2-8c2.3,0,3.7,0.5,4.5,1.4c0.7,0.9,1.1,2.6,1.1,4.9c0,12.1-13,35.6-39.1,70.3c6.3-4,9.8-6.1,10.4-6.1
			c0.6,0,0.9,0.1,0.9,0.4c0,0.3-0.2,0.6-0.5,0.8c-2.4,1.1-6.7,3.6-12.7,7.5c-17.5,23-35.6,44.3-54.3,64.1
			C22.4,254.1,10.9,264,6.5,264z M9.3,260.3c0,0.4,0.1,0.6,0.4,0.6c2.6,0,11.1-8.2,25.5-24.6c14.4-16.4,29.8-35.4,46.4-56.8
			c-13.7,9.5-26.4,19.6-38.2,30.3c-14,12.6-23.8,24.1-29.4,34.6C10.9,250.3,9.3,255.6,9.3,260.3z"/>
		<path d="M104.7,193.1c0,1.2,0.5,1.8,1.4,1.8c1.1,0,3.5-0.8,7.3-2.3c3.8-1.6,6.9-3.1,9.3-4.6l13.3-8.8l0.1,1.8
			c-9.5,6.6-16.5,10.8-21.2,12.6c-4.6,1.8-7.7,2.7-9.3,2.7c-2.5,0-3.8-1.6-3.8-4.9c0-4.4,1.5-8.8,4.6-13.3c3.1-4.4,6.7-8,10.8-10.9
			c4.1-2.8,8.1-5.1,11.9-6.9c3.8-1.8,6.7-2.7,8.7-2.7c2,0,3,0.7,3,2.1c0,3.5-3.9,7.7-11.8,12.7c-7.9,5-14.5,8.3-19.7,9.9
			C106.3,187,104.7,190.6,104.7,193.1z M136,159.8c0-0.3-0.2-0.4-0.5-0.4c-2.4,0-6.2,2.2-11.4,6.6c-5.1,4.4-9.6,9.3-13.4,14.5
			c4.5-1.5,9.9-4.9,16-10.2C132.9,165.1,136,161.6,136,159.8z"/>
		<path d="M177.1,175.1l1.1,1.3c-4.2,2.6-7.5,4.8-10.2,6.6c-2.6,1.8-4.6,2.7-6,2.7c-2,0-3-0.9-3-2.7c0-1.3,0.7-3.9,2.1-7.8
			c1.4-3.9,2.4-6.7,2.9-8.3l-0.4-0.4c-0.4,0-0.8,0.2-1.2,0.6c-9.1,7.6-15,12.8-17.7,15.4c-2.7,2.6-5.2,5.5-7.7,8.5
			c-2.5,3-3.8,4.7-4.1,4.9c-0.2,0.3-0.4,0.5-0.5,0.6c-0.3,0.3-1.2,0.4-2.8,0.4c-1.6,0-2.4-0.1-2.4-0.4c0.2-0.3,1.3-1.6,3.4-4
			c5.1-5.7,9.6-11.2,13.7-16.5l-3.9,2.4c-4.2,2.6-7.2,4.6-9.1,5.9l-0.5-1.6l8.5-5.6c3.1-2.1,5.7-4.2,7.9-6.5
			c2.2-2.3,3.7-4.1,4.5-5.5c0.8-1.4,1.5-2.6,2.2-3.5c0.6-0.9,1.2-1.4,1.8-1.4c0.5,0,1.4,0.3,2.6,1c0,0.9-0.7,2.6-2.2,4.9
			c-1.4,2.4-2.9,4.5-4.3,6.4l-2.2,2.7c0,0.2,0,0.3,0.1,0.3c0.3,0,0.6-0.2,0.9-0.5c0.4-0.3,1.9-1.6,4.5-4c2.7-2.3,5-4.3,7-5.9
			c2-1.6,4.3-3.2,6.8-4.7c2.6-1.5,4.4-2.3,5.6-2.3c1.2,0,1.8,0.3,1.8,0.8c0,0.8-2.2,2.4-6.6,4.8c-1,0.6-2.5,3.3-4.5,8.1
			c-2,4.8-3,8.4-3,10.7c0,0.5,0.4,0.7,1.3,0.7c0.9,0,2.5-0.8,5.1-2.5L177.1,175.1z"/>
		<path d="M166.2,194.3c1.6,0,9.7-5,24.2-15l0.1,1.8l-5.5,3.8c-3.7,2.5-7.8,5.1-12.2,7.6c-4.4,2.5-7.4,3.7-8.8,3.7
			c-1.1,0-1.6-0.9-1.6-2.8c0-1.8,2.7-6.6,8.2-14.3c5.5-7.7,11.3-14.8,17.4-21.2c0.6-0.8,1.3-1.1,2-1.1l3.1,0.3
			c0.7,0.1,1.1,0.3,1.1,0.6c0,0.3-0.3,0.9-0.8,1.6c-3.6,3.8-8.9,9.8-15.9,18.2c-7,8.4-11,13.7-12,16.1
			C165.5,194.1,165.7,194.3,166.2,194.3z M203.9,146.9c1.3-1.5,1.9-2.6,1.9-3.3c0-0.8-0.2-1.4-0.7-2c-0.5-0.6-1.2-0.8-2.2-0.8
			c-0.9,0-2.1,0.7-3.5,2c-1.4,1.3-2,2.7-2,4.2c0,1.5,0.8,2.2,2.3,2.2C201.3,149.1,202.7,148.4,203.9,146.9z"/>
		<path d="M266.2,100.7c0.8,0,1.2,0.5,1.2,1.6c0,4.5-9.7,16.5-29,36.1c-19.4,19.5-34.7,33.4-46.1,41.7c-4,5.9-6,10.2-6,12.8
			c0,0.8,0.2,1.3,0.5,1.3c3.7,0,10.3-3.1,19.9-9.3l8.1-5.5l0.1,1.8c-2.3,1.5-4.8,3.2-7.7,5.1c-10.5,6.8-17.7,10.2-21.8,10.2
			c-1.1,0-1.6-0.9-1.6-2.7c0-5.5,3.7-13.5,11-24.2c7.3-10.7,15.7-21,25.1-31.1c9.4-10,18.7-18.8,27.7-26.4
			C256.8,104.5,262.9,100.7,266.2,100.7z M263.6,103.2c-2.7,0-12.7,9-29.9,27.1c-17.2,18.1-30.3,33.5-39.3,46.4
			c8.3-6.6,21.9-19.5,40.9-38.7c19-19.2,28.5-30.7,28.5-34.4C263.9,103.5,263.8,103.3,263.6,103.2z"/>
		<path d="M329.7,181.1c-6.1,4.2-12.7,8-19.7,11.3c-7,3.3-12.9,5.2-17.7,5.8l-14.2,16.7c-1.4,1.5-2.5,2.3-3.5,2.3
			c-3.6,0-5.4-4.5-5.4-13.4c0-8.7,1.2-17.4,3.7-26.3c0.9-3.3,1.7-4.9,2.3-4.9l1.4,1.4c-0.5,2.2-0.7,4-0.7,5.6
			c0,4.9,1.4,8.8,4.2,11.7c2.8,2.9,6.3,4.5,10.4,4.8c18.8-24.2,37.3-48.6,55.5-73.3c-2.1,1.5-3.9,2.8-5.4,4c-1.5,1.1-5.2,3.6-11,7.5
			c-5.8,3.9-10.9,7-15.5,9.5c-4.6,2.5-9.7,4.8-15.3,7.1c-5.6,2.2-10.4,3.3-14.1,3.3c-5.3,0-8-2.8-8-8.5c0-3.5,1-7.5,3.1-12.1
			c2.1-4.6,5.2-9.3,9.4-14.2c4.2-4.8,9-9.3,14.5-13.4c5.5-4.1,12-7.5,19.6-10.1c7.6-2.6,15.5-4,23.6-4c4.1,0,6.1,1.4,6.1,4.1
			c0,2.9-2,6.6-6,11.1c-4,4.5-9,8.4-14.8,11.9c-5.9,3.5-11.1,5.2-15.7,5.2c-1.6-0.1-2.4-0.8-2.4-2.1c0-1.3,0.6-2.6,1.7-4
			c1.1-1.3,2-2,2.7-2c0.7,0,1,0.1,1,0.4s-0.2,0.6-0.7,1.1c-0.5,0.4-0.7,0.8-0.7,1.1c0,0.3,0.3,0.5,0.8,0.5c3.3,0,7.6-1.5,12.9-4.4
			c5.2-2.9,9.8-6.2,13.7-10c3.9-3.7,5.8-6.6,5.8-8.7c0-1.8-1.5-2.7-4.5-2.7c-6.7,0-14.1,2.1-22.3,6.4c-8.2,4.3-15.5,9.3-22,15.2
			c-6.5,5.8-11.9,11.8-16.3,17.9c-4.4,6.1-6.6,10.8-6.6,14.3c0,3.3,2,4.9,6.1,4.9c6,0,14.1-2.8,24.4-8.3c10.3-5.5,19.3-11.1,27-16.7
			c7.7-5.6,12.1-9.4,13.4-11.3c0.6-0.8,1.7-1.3,3.3-1.3c1.6,0,2.4,0.5,2.4,1.4c0,0.9-0.5,2.2-1.5,3.7c-16.6,23-36.7,48.4-60.4,76.2
			c9.1-1.1,20.3-6.3,33.4-15.5l9.1-5.9c0.6-0.4,1.3-0.6,2-0.6c0.7,0,1.1,0.1,1.1,0.3c0,0.2-0.1,0.4-0.4,0.6L329.7,181.1z M276.3,213
			c0.4,0,1-0.5,2-1.6c1-1,4.5-5.4,10.4-13.1c-3.7-0.3-6.9-1.6-9.7-3.9c-2.8-2.3-4.7-5.1-5.7-8.3c-0.1-0.3-0.2-0.4-0.3-0.4
			c-0.1,0-0.3,1.3-0.5,3.9c-0.2,2.6-0.3,6-0.3,10.2C272.1,208.7,273.5,213,276.3,213z"/>
		<path d="M391,132.7l-0.5,1.1c0,0.8,1.3,1.1,3.9,1.1c2.6,0,5.5-0.2,8.7-0.7c3.2-0.5,8.1-2,14.7-4.4c6.6-2.5,12.3-5.1,17.1-7.8
			c6.5-3.7,10.7-6.4,12.6-8C462,98.2,471,89.1,474.2,86.7c1.5-1.2,2.8-1.8,3.9-1.8c1,0,1.6,0.4,1.6,1.1c0,2-3.3,6.1-10,12.4
			c-6.7,6.3-11.9,10.5-15.6,12.6c-1.2,1.5-4.5,5.6-9.9,12.4c-5.4,6.8-10.6,13.4-15.6,19.8c-5,6.4-10.3,13.2-15.8,20.5
			c-12.2,16.2-18.3,26.3-18.3,30.3c0,0.2,0.1,0.3,0.4,0.3c1.1-0.4,1.8-0.6,2.2-0.6c0.4,0,0.5,0.1,0.5,0.4c0,0.8-1.3,2.1-3.9,3.7
			c-2.6,1.6-4.6,2.4-5.8,2.4c-0.8,0-1.2-0.8-1.2-2.4c0-4.2,2.8-10.6,8.4-19.2c5.6-8.6,11.7-16.7,18.4-24.6
			c6.7-7.8,13.1-15.2,19.2-22.1c6.1-6.9,9.4-10.8,9.8-11.8c0-0.1-0.1-0.1-0.3-0.1c-13.1,8.2-26.1,14.2-39.1,17.9
			c-5.1,1.5-9.4,2.3-13.1,2.3c-3.7,0-5.5-1.2-5.5-3.5c0-1.2,0.7-2.4,2.1-3.4c1.4-1,2.5-1.6,3.2-1.6C390.6,131.7,391,132.1,391,132.7
			z M449.2,198.6c3,0,6.7-1,11-2.9c4.4-1.9,8.1-3.9,11.3-5.9c3.2-2,6.9-4.5,11.2-7.3c4.3-2.9,7.4-4.9,9.2-6.1c1.8-1.2,2.8-1.9,2.8-2
			c0-0.2-0.4-0.3-1.1-0.3c-0.7,0-1.4,0.2-2,0.6l-9.1,5.9c-15.7,11-26.8,16.5-33.2,16.5c-7.5,0-11.2-8-11.2-23.9
			c0-9.9,1.3-20.6,3.8-32.2c1.3,3.4,4.1,5.1,8.7,5.1c4.5,0,10.9-2.4,19.1-7.1c8.2-4.7,16-10.1,23.3-16.1c7.3-6,13.7-11.9,19.1-17.7
			c5.4-5.8,8.1-9.7,8.1-11.8c0-1.4-1.4-2.1-4.3-2.1c-1.3,0-4.4,3.1-9.3,9.3l-3.4,4.2c-8.1,9.1-17.5,17.8-28.2,25.9
			c-10.7,8.1-19,12.2-25,12.2c-3.8,0-6.2-1.9-7.2-5.6c1.6-6.4,2.9-10.1,3.8-11.2l0.3-0.6c0-0.2-0.1-0.3-0.3-0.3c-1.3,0-3,2-5.2,6.1
			c-2.2,4.1-4.3,9.9-6.2,17.3c-1.9,7.4-2.9,15-2.9,22.8c0,7.8,1.4,14.2,4.1,19.3C439,196.1,443.3,198.6,449.2,198.6z"/>
		<path d="M527.4,179.3l0.1,1.8c-14.5,10.1-23.4,15.1-26.5,15.1c-0.5,0-0.8-0.3-0.8-1c0-2,0.7-4.8,2.2-8.5l0.7-2
			c0-0.2-0.2-0.3-0.5-0.3c-0.3,0-3,1.9-7.9,5.6c-4.9,3.8-8.1,5.6-9.5,5.6c-1.5,0-2.2-1.4-2.2-4.2c0-7.8,4.3-15.4,12.8-22.9
			c8.5-7.4,18.8-11.2,30.8-11.2c1.1,0,1.6,0.5,1.6,1.4c0,0.9-4.2,6.4-12.7,16.4c-8.5,10-12.7,16.1-12.7,18.1c0,0.4,0.3,0.6,0.8,0.6
			c0.5,0,2.8-1.2,6.9-3.7c4.1-2.4,7.9-4.9,11.5-7.3L527.4,179.3z M505.9,179.4c1.5-1.2,4.5-4.5,8.9-9.7c4.4-5.3,6.6-8.3,6.6-9.2
			c0-0.4-0.4-0.6-1.1-0.6c-4.2,0-9,2-14.5,6c-5.5,4-10.2,8.5-14,13.6s-5.8,9.2-5.8,12.3c0,0.6,0.3,0.8,0.8,0.8
			c0.5,0,1.4-0.4,2.6-1.1c1.2-0.7,2.7-1.7,4.5-3c1.8-1.3,3.3-2.4,4.5-3.3C502.9,182,505.3,180,505.9,179.4z"/>
		<path d="M544.7,196.9c-1.1,0-1.6-0.6-1.6-1.9c0-1.3,0.3-2.6,0.9-3.9c0.6-1.3,1.5-3,2.6-4.9c1.5-2.5,2.5-4.5,3-5.8l-0.1-0.1
			c-13.6,10.4-22,15.5-25.2,15.5c-1,0-1.5-0.9-1.5-2.8c0-4.9,1.7-9.6,5.1-14.1c3.4-4.5,7.5-8.2,12.2-11.1c4.8-2.9,9.6-5.2,14.3-6.8
			c4.8-1.7,8.8-2.5,12-2.5c18.1-20.8,32.3-38.1,42.5-51.8c2.1-2.8,4.4-4.3,7-4.4c0.8,0,1.2,0.4,1.2,1.1c0,0.8-6,8.2-18,22.4
			c-12,14.2-24,28.7-36,43.5c-12,14.8-18,23.2-18,25.4c0,0.4,0.2,0.6,0.7,0.6c0.5,0,2.3-0.8,5.4-2.4c3.2-1.6,6-3.2,8.5-4.8l13.3-8.8
			l0.1,1.8C558.3,191.7,548.8,196.9,544.7,196.9z M526,193.7c2.4,0,8.4-3.7,18-11.1c9.6-7.4,16.4-14.5,20.6-21.2c0-0.7-0.5-1-1.6-1
			c-2.5,0-6.8,2-12.9,5.9c-6,4-11.7,8.6-16.9,13.9c-5.2,5.3-7.8,9.6-7.8,12.8C525.5,193.5,525.7,193.7,526,193.7z"/>
		<path d="M612.9,179.3l0.1,1.8c-14.5,10.1-23.4,15.1-26.5,15.1c-0.5,0-0.8-0.3-0.8-1c0-2,0.7-4.8,2.2-8.5l0.7-2
			c0-0.2-0.2-0.3-0.5-0.3c-0.3,0-3,1.9-7.9,5.6c-4.9,3.8-8.1,5.6-9.5,5.6s-2.2-1.4-2.2-4.2c0-7.8,4.3-15.4,12.8-22.9
			c8.5-7.4,18.8-11.2,30.8-11.2c1.1,0,1.6,0.5,1.6,1.4c0,0.9-4.2,6.4-12.7,16.4c-8.5,10-12.7,16.1-12.7,18.1c0,0.4,0.3,0.6,0.8,0.6
			c0.5,0,2.8-1.2,6.9-3.7c4.1-2.4,7.9-4.9,11.5-7.3L612.9,179.3z M591.4,179.4c1.5-1.2,4.5-4.5,8.9-9.7c4.4-5.3,6.6-8.3,6.6-9.2
			c0-0.4-0.4-0.6-1.1-0.6c-4.2,0-9,2-14.5,6c-5.5,4-10.2,8.5-14,13.6c-3.8,5.1-5.8,9.2-5.8,12.3c0,0.6,0.3,0.8,0.8,0.8
			c0.5,0,1.4-0.4,2.6-1.1c1.2-0.7,2.7-1.7,4.5-3c1.8-1.3,3.3-2.4,4.5-3.3C588.4,182,590.9,180,591.4,179.4z"/>
		<path d="M628.8,158.8c2.3,0,3.4,0.4,3.4,1.1c0,0.3-0.2,0.7-0.6,1.2c-0.4,0.5-1.5,2-3.4,4.6c-1.9,2.5-3.7,5.1-5.5,7.7
			c-1.8,2.6-3.7,5.4-5.8,8.4c-4.7,6.8-7,10.8-7,12c0,0.1,0.1,0.1,0.3,0.1c4.9,0,12-5,21.4-15c1.3-4.1,3.4-8.5,6.3-13.1
			c2.9-4.6,5.2-6.8,6.8-6.8c0.8,0,1.2,0.4,1.2,1.3c0,3.3-4.1,9.4-12.2,18.2c-0.5,1.5-0.8,2.8-0.8,3.9c0,1.1,0.4,1.6,1.1,1.6
			c2.5,0,6.2-1.6,11-4.9l0.7,1.3c-5.9,4-10.1,6.1-12.7,6.1c-1.4,0-2.2-1-2.2-3c0-0.8,0-1.5,0.1-2c-9.6,10-17.1,15-22.7,15
			c-1.4,0-2-1-2-3c0-2,1.7-5.9,5.2-11.7c3.5-5.8,7-11.1,10.5-15.9c3.5-4.8,5.5-7.1,6.1-7.1H628.8z M643.5,161.8
			c-0.8,0-2.1,1.4-3.9,4.3c-1.8,2.9-3.3,5.9-4.7,9.1c6-6.9,8.9-11.2,8.9-13C643.9,161.9,643.8,161.8,643.5,161.8z"/>
		<path d="M684.3,179.3l0.1,1.8c-14.5,10.1-23.4,15.1-26.5,15.1c-0.5,0-0.8-0.3-0.8-1c0-2,0.7-4.8,2.2-8.5l0.7-2
			c0-0.2-0.2-0.3-0.5-0.3c-0.3,0-3,1.9-7.9,5.6c-4.9,3.8-8.1,5.6-9.5,5.6c-1.5,0-2.2-1.4-2.2-4.2c0-7.8,4.3-15.4,12.8-22.9
			c8.5-7.4,18.8-11.2,30.8-11.2c1.1,0,1.6,0.5,1.6,1.4c0,0.9-4.2,6.4-12.7,16.4c-8.5,10-12.7,16.1-12.7,18.1c0,0.4,0.3,0.6,0.8,0.6
			c0.5,0,2.8-1.2,6.9-3.7c4.1-2.4,7.9-4.9,11.5-7.3L684.3,179.3z M662.7,179.4c1.5-1.2,4.5-4.5,8.9-9.7c4.4-5.3,6.6-8.3,6.6-9.2
			c0-0.4-0.4-0.6-1.1-0.6c-4.2,0-9,2-14.5,6c-5.5,4-10.2,8.5-14,13.6c-3.8,5.1-5.8,9.2-5.8,12.3c0,0.6,0.3,0.8,0.8,0.8
			c0.5,0,1.4-0.4,2.6-1.1c1.2-0.7,2.7-1.7,4.5-3c1.8-1.3,3.3-2.4,4.5-3.3C659.8,182,662.2,180,662.7,179.4z"/>
		<path d="M682.8,182.3l-0.4-1.7l4.5-3c6.8-4.7,11-8,12.7-10c1.7-1.9,2.8-3.1,3.1-3.6c2.3-3.1,3.7-4.8,3.9-5.2
			c1.1,0.4,1.6,1.5,1.6,3.4c-1.8,2.7-4.2,6-7.3,9.8c-3.1,3.8-5.6,7-7.6,9.5c-2,2.5-3,3.9-3,4.3c0,0.4,0.1,0.6,0.2,0.6s0.8-0.5,2-1.5
			c1.2-1,4.5-3.5,9.9-7.4c10.9-7.9,17.9-12.9,20.8-15c3-2.1,4.9-3.2,5.8-3.2c0.9,0,1.3,0.9,1.3,2.8c0,1.8-1.4,4.6-4.1,8.3
			c-2.7,3.7-5.7,7.1-8.9,10.2c-8.7,8.3-13,12.8-13,13.7c0,0.1,0.2,0.1,0.5,0.1c1.1,0,7.2-3.7,18.3-11.2l5.5-3.8l0.1,1.8
			c-14.5,10.1-23.4,15.1-26.5,15.1c-0.5,0-0.8-0.3-0.8-0.8c0-3.5,2.1-7.6,6.3-12.4c4.2-4.8,8.4-9,12.5-12.8c4.1-3.8,6.2-6.3,6.2-7.6
			c0-0.2-0.1-0.3-0.3-0.3c-2.6,1.3-8.7,5.5-18.2,12.5c-9.5,7-15.1,11.1-16.7,12.4c-4.2,3.3-6.5,5-6.7,5.2c-0.2,0.1-0.7,0.6-1.4,1.5
			c-1.6,1.8-3.1,2.7-4.5,2.7c-2.2-0.2-3.3-0.3-3.4-0.4c-0.1-0.1-0.1-0.2-0.1-0.3c0-0.1,0.8-1,2.3-2.7c1.4-1.6,2.9-3.2,4.3-4.8
			c4.8-5.6,8.1-9.5,9.9-11.9L682.8,182.3z"/>
	</g>
	<g>
		<polygon points="16.1,227.9 109.3,223.6 202.5,219.6 389,211.8 575.5,204.4 668.7,200.9 762,197.6 668.8,201.9 575.6,206 
			389.1,213.8 202.6,221.1 109.4,224.6 		"/>
	</g>
	<path class="st2" d="M35.4,213.9"/>
	<ellipse class="st3" cx="750.1" cy="191.4" rx="1.5" ry="1.6"/>
	<ellipse cx="735.2" cy="205.4" rx="1.5" ry="1.6"/>
	<rect x="213.2" y="-170" class="st2" width="4.5" height="6.2"/>
</g>
</svg>
